<?xml version="1.0" standalone="no"?>
<!DOCTYPE svg PUBLIC "-//W3C//DTD SVG 20010904//EN"
 "http://www.w3.org/TR/2001/REC-SVG-20010904/DTD/svg10.dtd">
<svg version="1.0" xmlns="http://www.w3.org/2000/svg"
 width="512.000000pt" height="512.000000pt" viewBox="0 0 512.000000 512.000000"
 preserveAspectRatio="xMidYMid meet">

<g transform="translate(0.000000,512.000000) scale(0.100000,-0.100000)"
fill="#000000" stroke="none">
<path d="M613 4675 c-176 -48 -322 -187 -376 -359 l-22 -71 0 -830 c0 -829 0
-830 22 -900 53 -169 189 -305 358 -358 69 -22 76 -22 767 -22 691 0 697 0
725 21 15 11 34 38 41 58 10 32 10 43 -4 72 -9 19 -26 40 -38 47 -16 9 -198
13 -722 17 l-700 5 -59 30 c-72 37 -138 114 -160 187 -23 77 -23 1608 0 1686
23 78 82 144 162 184 l68 33 820 0 820 0 55 -26 c70 -33 126 -89 159 -159 l26
-55 5 -501 c5 -468 6 -503 23 -522 47 -51 124 -49 167 5 19 25 20 40 20 520 0
419 -2 505 -16 557 -47 182 -197 333 -379 381 -84 22 -1681 22 -1762 0z"/>
<path d="M3343 4238 c-189 -188 -189 -190 8 -383 116 -113 118 -115 164 -115
95 0 139 98 79 177 l-25 33 246 0 c356 0 345 9 345 -270 0 -205 7 -231 67
-256 43 -19 93 -5 123 33 19 24 20 40 20 234 0 185 -2 214 -20 263 -27 72 -88
139 -158 173 l-57 28 -284 3 -283 3 20 22 c29 31 44 75 37 108 -10 43 -59 79
-107 79 -40 0 -47 -6 -175 -132z"/>
<path d="M1455 4100 c-11 -4 -29 -18 -41 -31 -16 -19 -476 -1017 -549 -1194
-33 -76 19 -155 102 -155 57 0 84 38 186 265 l95 210 244 3 244 2 99 -215 c54
-118 108 -224 120 -235 68 -64 179 -14 177 79 0 25 -85 221 -274 636 -244 534
-277 602 -307 622 -35 24 -62 28 -96 13z m113 -527 l71 -153 -144 0 -144 0 23
53 c13 28 41 88 61 132 20 44 41 91 46 104 5 13 11 22 13 20 2 -2 36 -73 74
-156z"/>
<path d="M2805 2980 c-200 -28 -373 -174 -437 -369 -21 -65 -21 -73 -19 -896
2 -704 5 -839 18 -890 45 -182 196 -332 379 -379 90 -23 1669 -24 1757 -1 176
46 311 171 376 349 l26 71 0 835 c0 834 0 835 -22 905 -54 172 -185 302 -363
361 -51 17 -109 19 -855 20 -440 1 -827 -2 -860 -6z m1710 -242 c60 -32 114
-87 146 -148 l24 -45 3 -814 c3 -911 5 -877 -68 -969 -28 -36 -58 -60 -107
-84 l-68 -33 -820 0 -820 0 -55 26 c-70 33 -126 89 -159 159 l-26 55 0 825 0
825 25 50 c34 70 105 138 171 163 53 21 62 21 879 19 l825 -2 50 -27z"/>
<path d="M3564 2432 c-38 -30 -44 -57 -44 -181 l0 -121 -236 0 -236 0 -29 -29
c-50 -51 -36 -137 28 -170 15 -8 149 -11 428 -11 l407 0 -7 -42 c-19 -108 -78
-232 -161 -332 -81 -98 -81 -98 -155 -18 -35 37 -82 98 -103 135 -45 79 -77
107 -118 107 -62 0 -107 -44 -108 -104 0 -50 50 -141 136 -247 57 -69 62 -79
46 -88 -33 -18 -137 -40 -232 -49 -84 -9 -97 -13 -117 -36 -51 -59 -18 -159
56 -175 91 -18 291 21 432 86 l79 36 78 -36 c123 -57 240 -85 365 -89 80 -2
115 13 135 58 36 77 -23 154 -118 154 -50 0 -180 26 -232 47 l-38 15 53 58
c101 112 181 273 214 433 l18 87 45 0 c52 0 83 18 106 62 22 42 11 90 -27 122
-30 25 -34 26 -183 26 -84 0 -187 3 -229 6 l-77 7 0 91 c-1 115 -12 165 -45
194 -32 27 -100 30 -131 4z"/>
<path d="M814 1696 c-61 -27 -64 -39 -64 -268 0 -184 2 -213 20 -262 27 -72
88 -139 158 -173 l57 -28 284 -3 283 -3 -20 -22 c-29 -31 -44 -76 -37 -108 10
-43 59 -79 107 -79 40 0 47 6 175 132 189 188 189 190 -8 383 -116 113 -118
115 -164 115 -95 0 -139 -98 -79 -177 l25 -33 -246 0 c-356 0 -345 -9 -345
270 0 204 -7 231 -65 256 -41 17 -42 17 -81 0z"/>
</g>
</svg>
